<?xml version="1.0" encoding="utf-8"?>
<!-- Generator: Adobe Illustrator 23.1.0, SVG Export Plug-In . SVG Version: 6.00 Build 0)  -->
<svg version="1.1" id="Layer_1" xmlns="http://www.w3.org/2000/svg" xmlns:xlink="http://www.w3.org/1999/xlink" x="0px" y="0px"
	 viewBox="0 0 100 100" style="enable-background:new 0 0 100 100;" xml:space="preserve">
<style type="text/css">
	.st0{fill:#F9F9F9;}
</style>
<path class="st0" d="M31.4,43.9l16.3-16.3c1.3-1.3,3.4-1.3,4.7,0L68,43.3h-8V50h16.7c1.8,0,3.3-1.5,3.3-3.3V30h-6.7v9.2L57.1,22.9
	c-3.9-3.9-10.2-3.9-14.1,0L26.7,39.2L31.4,43.9z"/>
<path class="st0" d="M68.6,56.1L52.4,72.4c-1.3,1.3-3.4,1.3-4.7,0L32,56.7h8V50H23.3c-1.8,0-3.3,1.5-3.3,3.3V70h6.7v-9.2l16.3,16.3
	c3.9,3.9,10.2,3.9,14.1,0l16.3-16.3L68.6,56.1z"/>
</svg>
